<svg width="97" height="74" viewBox="0 0 97 74" fill="none" xmlns="http://www.w3.org/2000/svg">
<g clip-path="url(#clip0)">
<path d="M5.14956 72.3931H4.08222V70.4056C4.08222 69.9405 3.9241 69.6868 3.60785 69.6868C3.2916 69.6868 3.13347 69.8982 3.13347 70.3634V72.3931H2.06613V70.4056C2.06613 69.9405 1.90801 69.6868 1.63129 69.6868C1.27551 69.6868 1.11738 69.9405 1.11738 70.4056V72.3931H0.0500422V68.7988H1.07785V69.1794C1.19645 68.9679 1.31504 68.8411 1.47316 68.7565C1.59176 68.6719 1.78941 68.6719 2.0266 68.6719C2.42191 68.6719 2.73816 68.8834 2.93582 69.3062C3.05441 69.0525 3.2916 68.8411 3.56832 68.7565C3.68691 68.7142 3.84503 68.7142 4.00316 68.7142C4.35894 68.7142 4.63566 68.8411 4.87284 69.0525C5.11003 69.3062 5.18909 69.6022 5.18909 69.9828V72.3931H5.14956ZM96.9014 70.8285V70.3634C96.8619 69.9405 96.7433 69.5599 96.5061 69.2639C96.2294 68.8834 95.834 68.6719 95.3201 68.6719C94.8853 68.6719 94.5295 68.8411 94.2923 69.2216V68.7988H93.2645V73.9154H94.3319V72.0548C94.569 72.3508 94.8853 72.5199 95.3201 72.5199C95.755 72.5199 96.1503 72.3085 96.4665 71.9279C96.7037 71.6319 96.8619 71.2514 96.9014 70.8285ZM9.18174 71.2514C9.06315 71.6319 8.82596 71.9279 8.54924 72.1394C8.23299 72.3931 7.91674 72.4776 7.56096 72.4776C7.08659 72.4776 6.65175 72.3085 6.29597 71.9279C5.94019 71.5474 5.78206 71.1245 5.78206 70.5748C5.78206 70.0674 5.94019 69.6022 6.29597 69.2216C6.65175 68.8411 7.04706 68.6719 7.52143 68.6719C7.91674 68.6719 8.23299 68.7565 8.50971 68.9679C8.82596 69.1794 9.02362 69.4754 9.14221 69.8559C9.22127 70.1096 9.2608 70.3211 9.2608 70.5325C9.2608 70.5325 9.2608 70.6594 9.22127 70.9131H6.69128C6.80987 71.3782 7.04706 71.5896 7.4819 71.5896C7.71909 71.5896 7.91674 71.4628 8.07487 71.2514H9.10268H9.18174ZM6.77034 70.1942H8.27252C8.15393 69.7714 7.91674 69.6022 7.52143 69.6022C7.12612 69.6022 6.88893 69.8136 6.77034 70.1942ZM12.3442 72.0548C12.1466 72.3508 11.8303 72.5199 11.3955 72.5199C10.8816 72.5199 10.4863 72.3508 10.17 71.9702C9.8933 71.6319 9.73518 71.1668 9.73518 70.6171C9.73518 70.0674 9.8933 69.6445 10.17 69.2639C10.4863 68.8834 10.8816 68.7142 11.3955 68.7142C11.7908 68.7142 12.107 68.8411 12.3442 69.1371V67.1073H13.4116V72.3931H12.3442V72.0548ZM12.3838 70.5748C12.3838 70.3211 12.3047 70.0674 12.1861 69.8982C12.0675 69.7291 11.8699 69.6445 11.6327 69.6445C11.3955 69.6445 11.1978 69.7291 11.0397 69.8982C10.8816 70.0674 10.8025 70.2788 10.8025 70.5325C10.8025 70.7862 10.8816 70.9976 11.0397 71.1668C11.1978 71.3359 11.356 71.4628 11.5931 71.4628C11.8699 71.4628 12.0675 71.3782 12.1861 71.2091C12.3442 71.0399 12.3838 70.8285 12.3838 70.5325V70.5748ZM15.2695 72.3508H14.2022V68.7565H15.2695V72.3508ZM14.2022 67.0651H15.1905V68.0799H14.2022V67.0651ZM18.432 71.9702C18.2344 72.3085 17.9181 72.4776 17.4833 72.4776C16.9694 72.4776 16.5741 72.3085 16.2578 71.9279C15.9811 71.5896 15.823 71.1245 15.823 70.5748C15.823 70.0251 15.9811 69.6022 16.2578 69.2216C16.5741 68.8411 16.9694 68.6719 17.4833 68.6719C17.9181 68.6719 18.2344 68.8411 18.432 69.1371V68.7988H19.4994V72.3931H18.432V72.0125V71.9702ZM18.4716 70.5748C18.4716 70.3211 18.3925 70.1096 18.2344 69.8982C18.0763 69.7291 17.8786 69.6445 17.6414 69.6445C17.4042 69.6445 17.2461 69.7291 17.088 69.8982C16.9298 70.0674 16.8903 70.2788 16.8903 70.5325C16.8903 70.7862 16.9694 70.9976 17.1275 71.1668C17.2856 71.3359 17.4833 71.4628 17.6809 71.4628C17.9181 71.4628 18.1158 71.3782 18.2739 71.2091C18.432 71.0399 18.5111 70.8285 18.5111 70.5748H18.4716ZM25.4686 70.9976H26.4964C26.3778 71.4628 26.1406 71.8011 25.8639 72.0548C25.5476 72.3508 25.1919 72.4776 24.757 72.4776C24.2431 72.4776 23.8083 72.3085 23.492 71.9279C23.1362 71.5474 22.9781 71.1245 22.9781 70.5748C22.9781 70.0251 23.1362 69.5599 23.492 69.2216C23.8083 68.8411 24.2431 68.6719 24.757 68.6719C25.1919 68.6719 25.5872 68.7988 25.9034 69.0948C26.2197 69.3485 26.4569 69.7291 26.5359 70.1942H25.5081C25.429 69.9828 25.3105 69.8559 25.1919 69.8136C25.0733 69.7291 24.9151 69.6868 24.7175 69.6868C24.4803 69.6868 24.3222 69.7714 24.1641 69.9405C24.0059 70.1096 23.9664 70.3211 23.9664 70.5748C23.9664 70.8285 24.0455 71.0399 24.1641 71.2091C24.3222 71.3782 24.5198 71.4628 24.7175 71.4628C24.9151 71.4628 25.1128 71.4205 25.2314 71.2936C25.35 71.1668 25.429 71.0822 25.4686 70.9554V70.9976ZM30.5681 70.5748C30.5681 71.1245 30.41 71.5896 30.0542 71.9279C29.6984 72.2662 29.2636 72.4776 28.7497 72.4776C28.2358 72.4776 27.8009 72.3085 27.4451 71.9279C27.0894 71.5474 26.9312 71.1245 26.9312 70.5748C26.9312 70.0251 27.0894 69.5599 27.4451 69.2216C27.8009 68.8834 28.2358 68.6719 28.7497 68.6719C29.2636 68.6719 29.6984 68.8411 30.0542 69.2216C30.41 69.6022 30.5681 70.0251 30.5681 70.5748ZM29.5403 70.5748C29.5403 70.3211 29.4612 70.1096 29.3031 69.9405C29.145 69.7714 28.9473 69.6868 28.7101 69.6868C28.4729 69.6868 28.2753 69.7714 28.1567 69.9405C27.9986 70.1096 27.9195 70.3211 27.9195 70.5748C27.9195 70.8285 27.9986 71.0399 28.1567 71.2091C28.3148 71.3782 28.5125 71.4628 28.7101 71.4628C28.9473 71.4628 29.1054 71.3782 29.2636 71.2091C29.4217 71.0399 29.5008 70.8285 29.5008 70.5748H29.5403ZM36.3396 72.3508H35.2723V70.3634C35.2723 69.8982 35.1142 69.6445 34.7979 69.6445C34.4817 69.6445 34.3236 69.8559 34.3236 70.3211V72.3508H33.2562V70.3634C33.2562 69.8982 33.0981 69.6445 32.8214 69.6445C32.4656 69.6445 32.3075 69.8982 32.3075 70.3634V72.3508H31.2401V68.7565H32.2679V69.1371C32.3865 68.9256 32.5051 68.7988 32.6633 68.7142C32.7818 68.6296 32.9795 68.6296 33.2167 68.6296C33.612 68.6296 33.9282 68.8411 34.1654 69.2639C34.284 69.0102 34.4817 68.7988 34.7979 68.7142C34.9165 68.6719 35.0747 68.6719 35.2328 68.6719C35.5886 68.6719 35.8653 68.7988 36.1025 69.0102C36.3001 69.2639 36.4187 69.5599 36.4187 69.9405V72.3508H36.3396ZM42.2693 72.3508H41.202V70.3634C41.202 69.8982 41.0439 69.6445 40.7276 69.6445C40.4114 69.6445 40.2532 69.8559 40.2532 70.3211V72.3508H39.1859V70.3634C39.1859 69.8982 39.0278 69.6445 38.751 69.6445C38.3953 69.6445 38.2371 69.8982 38.2371 70.3634V72.3508H37.1698V68.7565H38.1976V69.1371C38.3162 68.9256 38.4348 68.7988 38.5929 68.7142C38.7115 68.6296 38.9092 68.6296 39.1464 68.6296C39.5812 68.6296 39.8579 68.8411 40.0556 69.2639C40.1742 69.0102 40.3718 68.7988 40.6881 68.7142C40.8067 68.6719 40.9253 68.6719 41.1229 68.6719C41.4787 68.6719 41.7554 68.7988 41.9926 69.0102C42.1903 69.2639 42.3089 69.5599 42.3089 69.9405V72.3508H42.2693ZM46.1434 68.7565V72.3508H45.1156V71.9702C44.9574 72.3085 44.6807 72.4776 44.2854 72.4776C43.8901 72.4776 43.5738 72.3508 43.3367 72.0971C43.0995 71.8434 42.9809 71.5051 42.9809 71.0399V68.7565H44.0482V70.7862C44.0482 71.2091 44.2063 71.4628 44.5226 71.4628C44.8388 71.4628 44.997 71.2514 44.997 70.7862V68.7565H46.0643H46.1434ZM50.057 72.3508H48.9896V70.2365C48.9896 69.8559 48.8315 69.6445 48.5548 69.6445C48.199 69.6445 48.0409 69.8559 48.0409 70.3211V72.3508H46.9735V68.7565H48.0013V69.1371C48.199 68.7988 48.4757 68.6296 48.871 68.6296C49.2663 68.6296 49.5431 68.7565 49.7407 68.9679C49.9384 69.1794 50.057 69.5176 50.057 69.9405V72.3508ZM51.8754 72.3508H50.8081V68.7565H51.8754V72.3508ZM50.8476 67.0651H51.8359V68.0799H50.8476V67.0651ZM54.9984 70.9976H56.0262C55.9076 71.4628 55.6704 71.8011 55.3937 72.0548C55.0774 72.3508 54.7216 72.4776 54.2868 72.4776C53.7729 72.4776 53.338 72.3085 53.0218 71.9279C52.666 71.5474 52.5079 71.1245 52.5079 70.5748C52.5079 70.0251 52.666 69.5599 53.0218 69.2216C53.338 68.8411 53.7729 68.6719 54.2868 68.6719C54.7216 68.6719 55.1169 68.7988 55.4332 69.0948C55.7494 69.3485 55.9866 69.7291 56.0657 70.1942H55.0379C54.9588 69.9828 54.8402 69.8559 54.7216 69.8136C54.603 69.7291 54.4449 69.6868 54.2473 69.6868C54.0496 69.6868 53.852 69.7714 53.7334 69.9405C53.5752 70.1096 53.5357 70.3211 53.5357 70.5748C53.5357 70.8285 53.6148 71.0399 53.7729 71.2091C53.931 71.3782 54.0891 71.4628 54.3263 71.4628C54.524 71.4628 54.7216 71.4205 54.8007 71.2936C54.9193 71.1668 54.9984 71.0822 55.0379 70.9554L54.9984 70.9976ZM59.0701 71.9702C58.9119 72.3085 58.5562 72.4776 58.1213 72.4776C57.6074 72.4776 57.2121 72.3085 56.8959 71.9279C56.6191 71.5896 56.461 71.1245 56.461 70.5748C56.461 70.0251 56.6191 69.6022 56.9354 69.2216C57.2516 68.8411 57.6469 68.6719 58.1608 68.6719C58.5957 68.6719 58.9119 68.8411 59.1096 69.1371V68.7988H60.1769V72.3931H59.1096V72.0125L59.0701 71.9702ZM59.1096 70.5748C59.1096 70.3211 59.0305 70.1096 58.8724 69.8982C58.7143 69.7291 58.5166 69.6445 58.2794 69.6445C58.0423 69.6445 57.8446 69.7291 57.726 69.8982C57.5679 70.0674 57.5283 70.2788 57.5283 70.5325C57.5283 70.7862 57.6074 70.9976 57.7655 71.1668C57.9237 71.3359 58.0818 71.4628 58.319 71.4628C58.5562 71.4628 58.7538 71.3782 58.9119 71.2091C59.0701 71.0399 59.1491 70.8285 59.1491 70.5748H59.1096ZM62.193 72.3508H61.1257V69.5599H60.6513V68.7565H61.1257V67.5725H62.193V68.7565H62.6279V69.5599H62.193V72.3508ZM64.1696 72.3508H63.1022V68.7565H64.1696V72.3508ZM63.1418 67.0651H64.1301V68.0799H63.1418V67.0651ZM68.3994 70.5748C68.3994 71.1245 68.2413 71.5896 67.8855 71.9279C67.5297 72.2662 67.0949 72.4776 66.581 72.4776C66.0671 72.4776 65.6322 72.3085 65.2765 71.9279C64.9207 71.5474 64.7626 71.1245 64.7626 70.5748C64.7626 70.0251 64.9207 69.5599 65.2765 69.2216C65.6322 68.8834 66.0671 68.6719 66.581 68.6719C67.0949 68.6719 67.5297 68.8411 67.8855 69.2216C68.2413 69.6022 68.3994 70.0251 68.3994 70.5748ZM67.3716 70.5748C67.3716 70.3211 67.2925 70.1096 67.1344 69.9405C66.9763 69.7714 66.7786 69.6868 66.5415 69.6868C66.3043 69.6868 66.1066 69.7714 65.9485 69.9405C65.7904 70.1096 65.7113 70.3211 65.7113 70.5748C65.7113 70.8285 65.7904 71.0399 65.9485 71.2091C66.1066 71.3782 66.3043 71.4628 66.5415 71.4628C66.7786 71.4628 66.9763 71.3782 67.1344 71.2091C67.2925 71.0399 67.3716 70.8285 67.3716 70.5748ZM72.1153 72.3508H71.048V70.2365C71.048 69.8559 70.8899 69.6445 70.6132 69.6445C70.2574 69.6445 70.0993 69.8559 70.0993 70.3211V72.3508H69.0319V68.7565H70.0597V69.1371C70.2574 68.7988 70.5341 68.6296 70.9294 68.6296C71.3247 68.6296 71.6014 68.7565 71.7991 68.9679C71.9968 69.1794 72.1153 69.5176 72.1153 69.9405V72.3508ZM75.436 71.2936C75.436 71.6742 75.2778 71.9702 75.0011 72.1816C74.7244 72.3931 74.4082 72.4776 74.0524 72.4776C73.6966 72.4776 73.3803 72.3931 73.1432 72.1816C72.906 71.9702 72.7478 71.6742 72.7083 71.2936H73.6966C73.7361 71.5051 73.8547 71.6319 74.0919 71.6319C74.171 71.6319 74.25 71.5896 74.3291 71.5474C74.4082 71.5051 74.4477 71.4205 74.4477 71.3359C74.4477 71.1668 74.2896 71.0399 74.0128 70.9554C73.5385 70.7862 73.2618 70.6594 73.1827 70.6171C72.906 70.4056 72.7478 70.1519 72.7478 69.8559C72.7478 69.5176 72.8664 69.2216 73.1432 68.9679C73.3803 68.7565 73.6966 68.6719 74.0524 68.6719C74.4082 68.6719 74.6849 68.7565 74.9221 68.9679C75.1592 69.1794 75.2778 69.4331 75.3174 69.8136H74.3291C74.3291 69.6445 74.2105 69.5599 74.0128 69.5599C73.8152 69.5599 73.7361 69.6445 73.7361 69.8136C73.7361 69.9828 73.8942 70.0674 74.171 70.1942C74.6058 70.3211 74.8825 70.4479 75.0011 70.5325C75.2778 70.7439 75.436 70.9976 75.436 71.3782V71.2936ZM81.168 71.9279C81.0099 72.2239 80.7331 72.3508 80.2588 72.3508C79.7449 72.3508 79.3495 72.1816 79.0728 71.8434C78.7566 71.5051 78.5985 71.0399 78.5985 70.5325C78.5985 69.9828 78.7566 69.5599 79.0728 69.1794C79.3891 68.8411 79.7844 68.6296 80.2588 68.6296C80.6936 68.6296 80.9703 68.7988 81.168 69.0948V68.7565H82.2353V72.1394C82.2353 72.7314 82.0772 73.1965 81.7214 73.5348C81.4052 73.8308 80.9308 73.9999 80.3774 73.9999H80.3378C79.903 73.9999 79.5077 73.9154 79.231 73.7039C78.9147 73.4925 78.7566 73.1965 78.6775 72.6891H79.7449C79.7449 72.9428 79.9425 73.0696 80.3378 73.0696C80.575 73.0696 80.7727 72.9851 80.9308 72.8582C81.0889 72.7314 81.1284 72.3931 81.1284 71.9279H81.168ZM79.7053 70.5325C79.7053 70.7862 79.7449 70.9976 79.8635 71.1668C79.982 71.3359 80.1797 71.4628 80.3774 71.4628C80.6145 71.4628 80.8122 71.3782 80.9703 71.2091C81.1284 71.0399 81.168 70.8285 81.168 70.5748C81.168 70.3211 81.0889 70.1096 80.9703 69.9405C80.8122 69.7714 80.6541 69.6868 80.3774 69.6868C80.1402 69.6868 79.982 69.7714 79.8635 69.9405C79.7449 70.1096 79.6658 70.3211 79.6658 70.5325H79.7053ZM84.0933 72.3931H83.0259V68.7988H84.0538V69.2216C84.2119 68.8834 84.4886 68.7142 84.8839 68.7142V69.7714C84.4095 69.7714 84.1328 69.9828 84.1328 70.4056V72.4354L84.0933 72.3931ZM88.758 70.6171C88.758 71.1668 88.5998 71.6319 88.2441 71.9702C87.8883 72.3085 87.4534 72.5199 86.9395 72.5199C86.4256 72.5199 85.9908 72.3508 85.635 71.9702C85.2792 71.5896 85.1211 71.1668 85.1211 70.6171C85.1211 70.0674 85.2792 69.6022 85.635 69.2639C85.9908 68.9256 86.4256 68.7142 86.9395 68.7142C87.4534 68.7142 87.8883 68.8834 88.2441 69.2639C88.5998 69.6445 88.758 70.0674 88.758 70.6171ZM87.7302 70.6171C87.7302 70.3634 87.6511 70.1519 87.493 69.9828C87.3348 69.8136 87.1372 69.7291 86.9 69.7291C86.6628 69.7291 86.4652 69.8136 86.3466 69.9828C86.1884 70.1519 86.1094 70.3634 86.1094 70.6171C86.1094 70.8708 86.1884 71.0822 86.3466 71.2514C86.5047 71.4205 86.7023 71.5051 86.9 71.5051C87.1372 71.5051 87.2953 71.4205 87.4534 71.2514C87.6116 71.0822 87.6906 70.8708 87.6906 70.6171H87.7302ZM92.4739 68.8411V72.4354H91.4461V72.0548C91.288 72.3931 91.0112 72.5622 90.6159 72.5622C90.2206 72.5622 89.9044 72.4354 89.6672 72.1816C89.43 71.9279 89.3114 71.5896 89.3114 71.1245V68.8411H90.3787V70.8708C90.3787 71.2936 90.5369 71.5474 90.8531 71.5474C91.1694 71.5474 91.3275 71.3359 91.3275 70.8708V68.8411H92.3948H92.4739ZM94.3319 70.6171C94.3319 70.8708 94.4109 71.1245 94.5295 71.2936C94.6876 71.4628 94.8853 71.5474 95.1225 71.5474C95.3597 71.5474 95.5178 71.4628 95.6759 71.2514C95.834 71.0822 95.9131 70.8708 95.9131 70.6171C95.9131 70.3634 95.834 70.1519 95.6759 69.9828C95.5178 69.8136 95.3597 69.7291 95.1225 69.7291C94.8853 69.7291 94.6876 69.8136 94.5295 69.9828C94.3714 70.1519 94.2923 70.3634 94.2923 70.6171H94.3319Z" fill="#6B7D87"/>
<path d="M14.9533 64.1475V56.24C14.9533 55.7326 14.8742 55.2675 14.7161 54.8446C14.558 54.4218 14.3208 54.0412 14.0045 53.7029C13.6883 53.3646 13.293 53.1109 12.8186 52.9418C12.3442 52.7303 11.7908 52.6458 11.1583 52.6458C10.2886 52.6458 9.57705 52.7726 9.02362 52.984C8.47018 53.1955 8.03534 53.4492 7.67956 53.7875C7.36331 53.4492 6.968 53.1955 6.41456 52.984C5.90065 52.7726 5.18909 52.6458 4.31941 52.6458C3.37066 52.6458 2.58004 52.7303 1.94754 52.8572C1.27551 52.984 0.64301 53.1955 0.0500422 53.4915V64.1475H3.09394V54.9292C3.2916 54.8446 3.44972 54.8023 3.64738 54.76C3.84503 54.7178 4.04269 54.7178 4.31941 54.7178C4.87284 54.7178 5.26816 54.8446 5.54487 55.1406C5.82159 55.4366 5.97972 55.7749 5.97972 56.24V64.1898H9.02362V55.3098C9.3794 54.9292 9.81424 54.76 10.3677 54.76C10.9211 54.76 11.2769 54.8869 11.5141 55.1829C11.7513 55.4789 11.8699 55.8595 11.8699 56.2823V64.1898H14.9138L14.9533 64.1475ZM25.5476 63.5132V56.7475C25.5476 55.9863 25.429 55.352 25.2314 54.8023C25.0337 54.2949 24.7175 53.872 24.3617 53.5338C24.0059 53.1955 23.5711 52.984 23.0572 52.8149C22.5433 52.688 21.9898 52.6035 21.3969 52.6035C20.4481 52.6035 19.6575 52.688 18.9855 52.8995C18.3134 53.1109 17.7995 53.28 17.4042 53.4492L18.0763 55.3098C18.432 55.1406 18.8273 54.9715 19.3017 54.8446C19.7761 54.7178 20.29 54.6332 20.8039 54.6332C21.3573 54.6332 21.8317 54.76 22.148 54.9715C22.5037 55.1829 22.6619 55.5635 22.6619 56.1555V56.6629C21.8712 56.7475 21.1202 56.8743 20.4086 57.0435C19.697 57.2126 19.0645 57.424 18.5111 57.7623C17.9577 58.0583 17.5228 58.4812 17.2066 58.9463C16.8903 59.4538 16.7322 60.0458 16.7322 60.7646C16.7322 63.1326 18.2739 64.3166 21.3573 64.3166C22.2666 64.3166 23.0572 64.232 23.7687 64.0629C24.4803 63.8938 25.0337 63.7246 25.4686 63.4709L25.5476 63.5132ZM22.7014 62.3292C22.4247 62.4983 22.0294 62.5406 21.5945 62.5406C21.0016 62.5406 20.5272 62.4138 20.1714 62.1178C19.8552 61.8218 19.6575 61.3566 19.6575 60.68C19.6575 60.2149 19.7366 59.8766 19.8552 59.5806C20.0133 59.2846 20.2109 59.0732 20.4481 58.8618C20.7248 58.6926 21.0411 58.5235 21.3969 58.4389C21.7922 58.3543 22.1875 58.2698 22.6619 58.2275V62.3292H22.7014ZM36.735 64.1475L33.3748 58.1006L36.4187 52.8572H33.5725L31.9517 56.1132H31.9122L30.3704 52.8572H27.1684L30.1333 58.312L26.8126 64.1475H29.8961L31.6354 60.5109L31.675 60.5532L33.3353 64.1475H36.6954H36.735ZM46.8945 64.1475L43.5343 58.1006L46.5782 52.8572H43.732L42.1112 56.1132H42.0717L40.53 52.8572H37.3279L40.2928 58.312L36.9721 64.1475H40.0556L41.7949 60.5109L41.8345 60.5532L43.4948 64.1475H46.8549H46.8945ZM51.401 49.6012C51.401 49.1783 51.2429 48.84 50.9266 48.5018C50.6104 48.2058 50.2151 48.0366 49.7802 48.0366C49.3059 48.0366 48.9501 48.2058 48.6338 48.5018C48.3176 48.7978 48.1595 49.1783 48.1595 49.6012C48.1595 50.024 48.3176 50.4046 48.6338 50.7006C48.9501 50.9966 49.3454 51.1235 49.7802 51.1235C50.2151 51.1235 50.6104 50.9966 50.9266 50.7006C51.2429 50.4046 51.401 50.0663 51.401 49.6012ZM51.322 52.8572H48.2781V64.1475H51.322V52.8572ZM68.5971 64.1475V56.24C68.5971 55.7326 68.518 55.2675 68.3599 54.8446C68.2018 54.4218 67.9646 54.0412 67.6483 53.7029C67.3321 53.3646 66.9368 53.1109 66.4624 52.9418C65.988 52.7303 65.4346 52.6458 64.8021 52.6458C63.9324 52.6458 63.2208 52.7726 62.6674 52.984C62.114 53.1955 61.6791 53.4492 61.3233 53.7875C61.0071 53.4492 60.6118 53.1955 60.0979 52.984C59.584 52.7726 58.8724 52.6458 58.0027 52.6458C57.0935 52.6458 56.2634 52.7303 55.5913 52.8572C54.9193 52.984 54.2868 53.1955 53.6938 53.4915V64.1475H56.7377V54.9292C56.9354 54.8446 57.0935 54.8023 57.2912 54.76C57.4888 54.7178 57.6865 54.7178 57.9632 54.7178C58.4771 54.7178 58.9119 54.8446 59.1887 55.1406C59.4654 55.4366 59.6235 55.7749 59.6235 56.24V64.1898H62.6674V55.3098C63.0232 54.9292 63.458 54.76 64.0115 54.76C64.5254 54.76 64.9207 54.8869 65.1579 55.1829C65.3951 55.4789 65.5136 55.8595 65.5136 56.2823V64.1898H68.5575L68.5971 64.1475ZM79.7449 63.4709V52.8572H76.701V61.864C76.3847 62.0332 75.9499 62.16 75.436 62.16C74.9221 62.16 74.5267 62.0332 74.3291 61.6949C74.0919 61.3989 73.9733 61.0606 73.9733 60.6378V52.8149H70.9294V60.384C70.9294 61.7372 71.2852 62.752 72.0363 63.3863C72.7478 64.0206 73.8942 64.3166 75.3569 64.3166C76.3452 64.3166 77.2149 64.232 77.9264 64.0629C78.638 63.8938 79.2705 63.6823 79.7449 63.4286V63.4709ZM96.9409 64.1475V56.24C96.9409 55.7326 96.8619 55.2675 96.7037 54.8446C96.5456 54.4218 96.3084 54.0412 95.9922 53.7029C95.6759 53.3646 95.2806 53.1109 94.8062 52.9418C94.3319 52.7303 93.7784 52.6458 93.1459 52.6458C92.2762 52.6458 91.5647 52.7726 91.0112 52.984C90.4578 53.1955 90.023 53.4492 89.6672 53.7875C89.3509 53.4492 88.9556 53.1955 88.4417 52.984C87.9278 52.7726 87.2162 52.6458 86.3466 52.6458C85.3978 52.6458 84.6467 52.7303 83.9747 52.8572C83.3027 52.984 82.6702 53.1955 82.0772 53.4915V64.1475H85.1211V54.9292C85.3188 54.8446 85.4769 54.8023 85.6745 54.76C85.8722 54.7178 86.0698 54.7178 86.3466 54.7178C86.8605 54.7178 87.2953 54.8446 87.572 55.1406C87.8487 55.4366 88.0069 55.7749 88.0069 56.24V64.1898H91.0508V55.3098C91.4066 54.9292 91.8414 54.76 92.3948 54.76C92.9087 54.76 93.304 54.8869 93.5808 55.1829C93.818 55.4789 93.9365 55.8595 93.9365 56.2823V64.1898H96.9804L96.9409 64.1475Z" fill="#ED2F59"/>
<path d="M40.4493 15.096V5.49714C40.4493 2.45257 42.7421 0 45.5883 0H51.9924C49.1461 0 46.8533 2.49486 46.8533 5.49714V17.3371L40.4493 15.096Z" fill="#6B7D87"/>
<path d="M52.7828 0.676788C51.5573 0.676788 50.4109 1.2265 49.6203 2.1145C50.2923 3.04479 50.6876 4.22879 50.6876 5.49736V9.00707L57.0917 6.68136V5.53965C57.0917 4.86307 56.9731 4.22879 56.7754 3.63679C56.1429 1.94536 54.5617 0.719074 52.7432 0.719074L52.7828 0.676788Z" fill="#6B7D87"/>
<path d="M32.3446 9.8946C31.9493 11.1632 32.1074 12.474 32.6609 13.5312C33.6887 13.1083 34.8746 13.066 35.9815 13.4889L39.0649 14.5883L38.9859 7.35745L37.9581 7.01917C37.3651 6.80774 36.7721 6.72317 36.1792 6.76545C34.4793 6.89231 32.8981 8.1186 32.3446 9.97917V9.8946ZM41.3182 26.8935L32.819 23.9335C30.1309 23.0032 28.6287 19.874 29.5379 16.9986L31.5145 10.4866C30.6448 13.362 32.1074 16.4912 34.8351 17.4215L45.3504 21.058L41.3973 26.8935H41.3182Z" fill="#6B7D87"/>
<path d="M34.2424 33.5327C35.2307 34.2939 36.4562 34.5476 37.563 34.3361C37.5235 33.1521 37.8398 31.9681 38.5513 30.9533L40.4488 28.1201L33.9657 25.9636L33.3332 26.8939C32.9774 27.4436 32.7007 28.0356 32.5426 28.6276C32.1473 30.4036 32.7402 32.391 34.2029 33.5327H34.2424ZM52.15 29.6424L46.8924 37.3807C45.2321 39.8333 41.9905 40.383 39.6977 38.607L34.5191 34.5899C36.812 36.3659 40.0535 35.8161 41.7138 33.3636L48.1969 23.807L52.15 29.6424Z" fill="#6B7D87"/>
<path d="M55.8272 38.9451C56.8155 38.1839 57.4084 36.9999 57.5665 35.8159C56.4992 35.4776 55.5505 34.8011 54.8389 33.7862L52.9414 30.9531L49.0278 36.8731L49.6603 37.8034C50.0161 38.3531 50.4905 38.7759 50.9648 39.1142C52.4275 40.0868 54.3645 40.0868 55.8272 38.9451ZM57.9223 19.5359L63.18 27.2742C64.8403 29.7268 64.3264 33.1942 62.0336 34.9702L56.855 38.9874C59.1478 37.2114 59.6617 33.7439 58.0014 31.2914L51.5183 21.7348L57.9223 19.4937V19.5359Z" fill="#6B7D87"/>
<path d="M67.2907 18.6478C66.8954 17.3792 66.0653 16.4489 65.0375 15.8992C64.405 16.8718 63.4957 17.6329 62.3889 18.0558L59.3054 19.1129L63.3376 24.906L64.3654 24.5678C64.9584 24.3563 65.4723 24.0603 65.9467 23.6375C67.2512 22.4535 67.8442 20.466 67.2907 18.6478ZM50.6481 10.5289L59.1868 7.56889C61.875 6.63861 64.8003 8.20318 65.67 11.1209L67.6465 17.6329C66.7768 14.7575 63.8515 13.1506 61.1634 14.0809L50.6481 17.7175V10.4866V10.5289Z" fill="#ED2F59"/>
</g>
<defs>
<clipPath id="clip0">
<rect width="96.6315" height="74" fill="white"/>
</clipPath>
</defs>
</svg>
